<svg xmlns="http://www.w3.org/2000/svg" xmlns:xlink="http://www.w3.org/1999/xlink" width="400" zoomAndPan="magnify" viewBox="0 0 300 299.999988" height="400" preserveAspectRatio="xMidYMid meet" version="1.2"><defs><clipPath id="d77329c893"><path d="M 7.457031 7.457031 L 292.542969 7.457031 L 292.542969 292.542969 L 7.457031 292.542969 Z M 7.457031 7.457031 "/></clipPath><clipPath id="49b0a269d7"><path d="M 150 7.457031 C 71.277344 7.457031 7.457031 71.277344 7.457031 150 C 7.457031 228.722656 71.277344 292.542969 150 292.542969 C 228.722656 292.542969 292.542969 228.722656 292.542969 150 C 292.542969 71.277344 228.722656 7.457031 150 7.457031 Z M 150 7.457031 "/></clipPath></defs><g id="62b1c18288"><g clip-rule="nonzero" clip-path="url(#d77329c893)"><g clip-rule="nonzero" clip-path="url(#49b0a269d7)"><path style=" stroke:none;fill-rule:nonzero;fill:#261fb3;fill-opacity:1;" d="M 7.457031 7.457031 L 292.542969 7.457031 L 292.542969 292.542969 L 7.457031 292.542969 Z M 7.457031 7.457031 "/></g></g><path style=" stroke:none;fill-rule:evenodd;fill:#efefef;fill-opacity:1;" d="M 60.1875 92.28125 L 60.1875 104.476562 L 116.230469 104.476562 L 116.050781 146.195312 C 115.882812 184.859375 115.792969 188.136719 114.855469 190.960938 C 112.480469 198.085938 109.222656 202.140625 104.109375 204.332031 C 97.898438 206.996094 88.238281 206.871094 82.085938 204.054688 C 78.453125 202.390625 74.40625 198.21875 72.375 194.035156 C 70.660156 190.515625 69.0625 185.050781 69.046875 182.667969 C 69.03125 179.5625 69.035156 179.5625 56.765625 180.9375 C 40.984375 182.707031 42.332031 182.285156 42.75 185.351562 C 45.929688 208.714844 59.992188 225.070312 80.992188 229.835938 C 85.894531 230.949219 101.507812 230.800781 106.476562 229.59375 C 109.132812 228.953125 115.824219 225.898438 127.671875 219.925781 L 144.988281 211.195312 L 145 188.882812 L 145.007812 166.566406 L 210.425781 166.566406 L 210.425781 228.660156 L 237.035156 228.660156 L 237.035156 80.082031 L 210.425781 80.082031 L 210.425781 142.175781 L 145.007812 142.175781 L 145.007812 80.082031 L 60.1875 80.082031 Z M 132.535156 222.5625 L 120.890625 228.632812 L 132.949219 228.644531 L 145.007812 228.660156 L 145.007812 222.5625 C 145.007812 219.207031 144.820312 216.46875 144.59375 216.476562 C 144.363281 216.484375 138.9375 219.222656 132.535156 222.5625 "/></g></svg>